<svg xmlns="http://www.w3.org/2000/svg" width="108" height="32" fill="none"><path fill="#155EEF" fill-rule="evenodd" d="M4.8 4.8a1.6 1.6 0 1 0 0 3.2v12.8A3.2 3.2 0 0 0 8 24h4.138l-2.069 2.069a1.6 1.6 0 1 0 2.262 2.262l3.67-3.669 3.668 3.67a1.6 1.6 0 0 0 2.262-2.263L19.863 24H24a3.2 3.2 0 0 0 3.2-3.2V8a1.6 1.6 0 0 0 0-3.2H4.8Zm17.6 6.4a1.6 1.6 0 0 0-3.2 0v6.4a1.6 1.6 0 0 0 3.2 0v-6.4Zm-4.8 1.6a1.6 1.6 0 0 0-3.2 0v4.8a1.6 1.6 0 0 0 3.2 0v-4.8Zm-4.8 1.6a1.6 1.6 0 0 0-3.2 0v3.2a1.6 1.6 0 0 0 3.2 0v-3.2Z" clip-rule="evenodd"/><path fill="#101828" d="M40.36 13.22c-.057-.574-.301-1.019-.732-1.336-.431-.317-1.016-.476-1.754-.476-.502 0-.926.071-1.272.213-.345.138-.61.33-.795.576-.18.246-.27.525-.27.838-.01.26.045.488.163.682.123.194.291.362.505.504.213.137.459.258.738.362.28.1.578.185.895.256l1.307.312a9.209 9.209 0 0 1 1.747.569c.53.236.99.527 1.378.873.388.346.689.753.902 1.222.218.468.329 1.006.334 1.612-.005.89-.232 1.662-.682 2.315-.445.649-1.09 1.153-1.932 1.513-.838.355-1.849.533-3.033.533-1.174 0-2.197-.18-3.068-.54-.866-.36-1.543-.893-2.031-1.598-.483-.71-.736-1.589-.76-2.635h2.976c.033.488.173.895.419 1.221.25.322.585.566 1.001.732.422.161.898.241 1.428.241.52 0 .973-.075 1.356-.227.389-.151.69-.362.902-.632.213-.27.32-.58.32-.93 0-.327-.097-.602-.291-.824-.19-.223-.469-.412-.838-.568a8.524 8.524 0 0 0-1.343-.426l-1.583-.398c-1.227-.299-2.195-.765-2.905-1.4-.71-.634-1.063-1.488-1.059-2.563-.004-.88.23-1.65.704-2.309.478-.658 1.134-1.171 1.967-1.54.833-.37 1.78-.555 2.84-.555 1.08 0 2.023.185 2.828.554.81.37 1.439.883 1.889 1.541.45.659.682 1.421.696 2.287h-2.948ZM48.143 9.036v14.546h-3.026V9.036h3.026ZM50.167 23.582v-10.91h3.025v10.91h-3.025Zm1.52-12.316c-.45 0-.836-.149-1.158-.447a1.45 1.45 0 0 1-.476-1.087c0-.416.159-.774.476-1.072a1.63 1.63 0 0 1 1.157-.455c.45 0 .834.152 1.151.455.322.298.483.656.483 1.072 0 .422-.161.784-.483 1.087a1.62 1.62 0 0 1-1.15.447ZM59.236 23.76a4.118 4.118 0 0 1-2.252-.64c-.667-.43-1.198-1.063-1.59-1.896-.389-.838-.583-1.866-.583-3.083 0-1.25.201-2.289.604-3.118.402-.833.937-1.455 1.605-1.867a4.113 4.113 0 0 1 2.209-.626c.61 0 1.12.105 1.527.313.411.204.743.46.994.767.256.303.45.601.582.895h.093V9.036h3.018v14.546H62.46v-1.748h-.128a3.897 3.897 0 0 1-.603.902 3 3 0 0 1-1.002.732c-.407.194-.904.291-1.491.291Zm.959-2.408c.487 0 .9-.133 1.235-.398.341-.27.602-.646.782-1.13.184-.482.277-1.048.277-1.697 0-.648-.09-1.212-.27-1.69-.18-.478-.44-.848-.782-1.108-.34-.26-.755-.39-1.242-.39-.498 0-.917.134-1.258.404-.34.27-.598.644-.774 1.122-.175.478-.262 1.032-.262 1.662 0 .635.087 1.196.262 1.683.18.483.438.862.774 1.137.341.27.76.405 1.258.405ZM72.502 23.795c-1.122 0-2.088-.228-2.897-.682a4.669 4.669 0 0 1-1.861-1.946c-.436-.843-.654-1.84-.654-2.99 0-1.122.218-2.107.654-2.955a4.83 4.83 0 0 1 1.84-1.981c.795-.474 1.727-.71 2.797-.71.72 0 1.39.115 2.01.348.625.227 1.17.57 1.634 1.03.469.459.833 1.036 1.094 1.732.26.692.39 1.501.39 2.43v.83h-9.211v-1.875h6.363c0-.435-.094-.821-.284-1.157a2.035 2.035 0 0 0-.788-.789 2.248 2.248 0 0 0-1.158-.29c-.459 0-.866.106-1.221.319a2.24 2.24 0 0 0-.824.845c-.2.35-.3.74-.306 1.172v1.782c0 .54.1 1.006.299 1.4.203.393.49.696.86.909.368.213.806.32 1.313.32.336 0 .644-.048.923-.143.28-.095.519-.237.718-.426.198-.19.35-.421.454-.696l2.798.185a3.822 3.822 0 0 1-.873 1.761c-.436.497-1 .886-1.69 1.165-.687.274-1.48.412-2.38.412ZM88.16 15.783l-2.77.17a1.431 1.431 0 0 0-.305-.638 1.62 1.62 0 0 0-.618-.462 2.099 2.099 0 0 0-.902-.178c-.468 0-.864.1-1.186.299-.322.194-.483.454-.483.781 0 .26.105.48.313.66.208.18.566.325 1.072.434l1.975.398c1.06.217 1.851.568 2.372 1.05.52.483.781 1.118.781 1.904 0 .715-.21 1.342-.632 1.882-.417.54-.99.961-1.719 1.264-.724.299-1.56.448-2.507.448-1.444 0-2.595-.3-3.452-.902-.852-.606-1.351-1.43-1.498-2.472l2.976-.156c.09.44.308.776.653 1.008.346.228.788.341 1.328.341.53 0 .957-.101 1.279-.305.326-.208.492-.476.497-.803a.835.835 0 0 0-.348-.674c-.228-.18-.578-.318-1.051-.412l-1.89-.377c-1.065-.213-1.858-.582-2.379-1.108-.516-.525-.774-1.195-.774-2.01 0-.7.19-1.304.568-1.81.384-.507.921-.898 1.612-1.172.697-.275 1.51-.412 2.444-.412 1.377 0 2.462.29 3.252.873.796.582 1.26 1.376 1.392 2.38ZM92.478 23.582h-3.295l5.021-14.546h3.963l5.014 14.546h-3.295L96.242 12.36h-.113l-3.65 11.222Zm-.206-5.718h7.784v2.4h-7.784v-2.4ZM107.607 9.036v14.546h-3.075V9.036h3.075Z"/></svg>