<?xml version="1.0" standalone="no"?>
<!DOCTYPE svg PUBLIC "-//W3C//DTD SVG 20010904//EN"
 "http://www.w3.org/TR/2001/REC-SVG-20010904/DTD/svg10.dtd">
<svg version="1.0" xmlns="http://www.w3.org/2000/svg"
 width="1920.000000pt" height="1080.000000pt" viewBox="0 0 1920.000000 1080.000000"
 preserveAspectRatio="xMidYMid meet">

<g transform="translate(0.000000,1080.000000) scale(0.100000,-0.100000)"
fill="#000000" stroke="none">
<path d="M9587 5762 l-378 -2 -10 -24 c-13 -27 3 -66 26 -66 13 0 15 -32 15
-207 0 -302 6 -315 152 -323 l89 -5 -40 -42 c-45 -46 -51 -71 -23 -96 30 -27
45 -21 117 48 38 36 71 65 75 65 3 0 30 -25 60 -56 77 -78 120 -91 140 -40 9
26 -3 52 -41 87 -16 14 -29 29 -29 32 0 4 34 7 76 7 80 0 108 9 136 44 16 18
18 48 18 249 l0 227 25 12 c42 19 32 76 -15 89 -8 2 -185 3 -393 1z m217 -168
c13 -12 16 -40 16 -137 0 -135 -11 -167 -55 -167 -44 0 -55 33 -55 164 0 97 3
123 17 138 20 22 56 23 77 2z m-160 -50 c13 -12 16 -38 16 -118 0 -89 -3 -105
-20 -121 -28 -25 -65 -13 -79 26 -6 18 -11 67 -11 110 0 66 3 82 20 99 24 24
53 26 74 4z m-164 -44 c13 0 30 -60 30 -107 0 -64 -23 -102 -62 -103 -36 0
-48 28 -48 110 0 70 2 81 22 95 13 8 29 13 36 10 8 -3 17 -5 22 -5z"/>
</g>
</svg>
